<svg width="15" height="13" viewBox="0 0 15 13" fill="none" xmlns="http://www.w3.org/2000/svg">
<path d="M14.9875 4.87422C14.9786 4.8329 14.9655 4.79259 14.9484 4.75391L13.4727 1.31016C13.1324 0.514453 12.3047 0 11.3629 0H3.63712C2.6961 0 1.86758 0.514453 1.52774 1.31016L0.0503963 4.75391C0.0167994 4.83158 -0.000357347 4.91537 5.64172e-06 5V11.875C5.64172e-06 12.0408 0.0658538 12.1997 0.183064 12.3169C0.300274 12.4342 0.459245 12.5 0.625006 12.5H1.87501C2.04077 12.5 2.19974 12.4342 2.31695 12.3169C2.43416 12.1997 2.50001 12.0408 2.50001 11.875V11.25H12.5V11.875C12.5 12.0408 12.5659 12.1997 12.6831 12.3169C12.8003 12.4342 12.9592 12.5 13.125 12.5H14.375C14.5408 12.5 14.6997 12.4342 14.8169 12.3169C14.9342 12.1997 15 12.0408 15 11.875V5C15.0001 4.95776 14.9959 4.91562 14.9875 4.87422ZM3.12501 8.75C2.87778 8.75 2.6361 8.67669 2.43054 8.53934C2.22498 8.40199 2.06477 8.20676 1.97016 7.97835C1.87555 7.74995 1.85079 7.49861 1.89902 7.25614C1.94726 7.01366 2.06631 6.79093 2.24112 6.61612C2.41594 6.4413 2.63867 6.32225 2.88114 6.27402C3.12362 6.22579 3.37495 6.25054 3.60336 6.34515C3.83177 6.43976 4.02699 6.59998 4.16434 6.80554C4.30169 7.0111 4.37501 7.25277 4.37501 7.5C4.37501 7.83152 4.24331 8.14946 4.00889 8.38388C3.77447 8.6183 3.45653 8.75 3.12501 8.75ZM11.875 8.75C11.6278 8.75 11.3861 8.67669 11.1805 8.53934C10.975 8.40199 10.8148 8.20676 10.7202 7.97835C10.6255 7.74995 10.6008 7.49861 10.649 7.25614C10.6973 7.01366 10.8163 6.79093 10.9911 6.61612C11.1659 6.4413 11.3887 6.32225 11.6311 6.27402C11.8736 6.22579 12.125 6.25054 12.3534 6.34515C12.5818 6.43976 12.777 6.59998 12.9143 6.80554C13.0517 7.0111 13.125 7.25277 13.125 7.5C13.125 7.83152 12.9933 8.14946 12.7589 8.38388C12.5245 8.6183 12.2065 8.75 11.875 8.75ZM1.57266 4.375L2.6754 1.80273C2.8168 1.47227 3.20313 1.25 3.63712 1.25H11.3629C11.7965 1.25 12.1832 1.47227 12.3246 1.80273L13.4273 4.375H1.57266Z" fill="black"/>
</svg>
