<svg width="20" height="15" viewBox="0 0 20 15" fill="none" xmlns="http://www.w3.org/2000/svg">
<path fill-rule="evenodd" clip-rule="evenodd" d="M7.5 1.875C7.5 1.37772 7.69754 0.900806 8.04917 0.549175C8.40081 0.197544 8.87772 0 9.375 0H10.625C11.1223 0 11.5992 0.197544 11.9508 0.549175C12.3025 0.900806 12.5 1.37772 12.5 1.875V3.125C12.5 3.62228 12.3025 4.09919 11.9508 4.45083C11.5992 4.80246 11.1223 5 10.625 5V6.25H17.5C17.6658 6.25 17.8247 6.31585 17.9419 6.43306C18.0592 6.55027 18.125 6.70924 18.125 6.875V8.125C18.125 8.29076 18.0592 8.44973 17.9419 8.56694C17.8247 8.68415 17.6658 8.75 17.5 8.75C17.3342 8.75 17.1753 8.68415 17.0581 8.56694C16.9408 8.44973 16.875 8.29076 16.875 8.125V7.5H10.625V8.125C10.625 8.29076 10.5592 8.44973 10.4419 8.56694C10.3247 8.68415 10.1658 8.75 10 8.75C9.83424 8.75 9.67527 8.68415 9.55806 8.56694C9.44085 8.44973 9.375 8.29076 9.375 8.125V7.5H3.125V8.125C3.125 8.29076 3.05915 8.44973 2.94194 8.56694C2.82473 8.68415 2.66576 8.75 2.5 8.75C2.33424 8.75 2.17527 8.68415 2.05806 8.56694C1.94085 8.44973 1.875 8.29076 1.875 8.125V6.875C1.875 6.70924 1.94085 6.55027 2.05806 6.43306C2.17527 6.31585 2.33424 6.25 2.5 6.25H9.375V5C8.87772 5 8.40081 4.80246 8.04917 4.45083C7.69754 4.09919 7.5 3.62228 7.5 3.125V1.875ZM10.625 3.75C10.7908 3.75 10.9497 3.68415 11.0669 3.56694C11.1842 3.44973 11.25 3.29076 11.25 3.125V1.875C11.25 1.70924 11.1842 1.55027 11.0669 1.43306C10.9497 1.31585 10.7908 1.25 10.625 1.25H9.375C9.20924 1.25 9.05027 1.31585 8.93306 1.43306C8.81585 1.55027 8.75 1.70924 8.75 1.875V3.125C8.75 3.29076 8.81585 3.44973 8.93306 3.56694C9.05027 3.68415 9.20924 3.75 9.375 3.75H10.625ZM0 11.875C0 11.3777 0.197544 10.9008 0.549175 10.5492C0.900805 10.1975 1.37772 10 1.875 10H3.125C3.62228 10 4.09919 10.1975 4.45083 10.5492C4.80246 10.9008 5 11.3777 5 11.875V13.125C5 13.6223 4.80246 14.0992 4.45083 14.4508C4.09919 14.8025 3.62228 15 3.125 15H1.875C1.37772 15 0.900805 14.8025 0.549175 14.4508C0.197544 14.0992 0 13.6223 0 13.125L0 11.875ZM1.875 11.25C1.70924 11.25 1.55027 11.3158 1.43306 11.4331C1.31585 11.5503 1.25 11.7092 1.25 11.875V13.125C1.25 13.2908 1.31585 13.4497 1.43306 13.5669C1.55027 13.6842 1.70924 13.75 1.875 13.75H3.125C3.29076 13.75 3.44973 13.6842 3.56694 13.5669C3.68415 13.4497 3.75 13.2908 3.75 13.125V11.875C3.75 11.7092 3.68415 11.5503 3.56694 11.4331C3.44973 11.3158 3.29076 11.25 3.125 11.25H1.875ZM7.5 11.875C7.5 11.3777 7.69754 10.9008 8.04917 10.5492C8.40081 10.1975 8.87772 10 9.375 10H10.625C11.1223 10 11.5992 10.1975 11.9508 10.5492C12.3025 10.9008 12.5 11.3777 12.5 11.875V13.125C12.5 13.6223 12.3025 14.0992 11.9508 14.4508C11.5992 14.8025 11.1223 15 10.625 15H9.375C8.87772 15 8.40081 14.8025 8.04917 14.4508C7.69754 14.0992 7.5 13.6223 7.5 13.125V11.875ZM9.375 11.25C9.20924 11.25 9.05027 11.3158 8.93306 11.4331C8.81585 11.5503 8.75 11.7092 8.75 11.875V13.125C8.75 13.2908 8.81585 13.4497 8.93306 13.5669C9.05027 13.6842 9.20924 13.75 9.375 13.75H10.625C10.7908 13.75 10.9497 13.6842 11.0669 13.5669C11.1842 13.4497 11.25 13.2908 11.25 13.125V11.875C11.25 11.7092 11.1842 11.5503 11.0669 11.4331C10.9497 11.3158 10.7908 11.25 10.625 11.25H9.375ZM15 11.875C15 11.3777 15.1975 10.9008 15.5492 10.5492C15.9008 10.1975 16.3777 10 16.875 10H18.125C18.6223 10 19.0992 10.1975 19.4508 10.5492C19.8025 10.9008 20 11.3777 20 11.875V13.125C20 13.6223 19.8025 14.0992 19.4508 14.4508C19.0992 14.8025 18.6223 15 18.125 15H16.875C16.3777 15 15.9008 14.8025 15.5492 14.4508C15.1975 14.0992 15 13.6223 15 13.125V11.875ZM16.875 11.25C16.7092 11.25 16.5503 11.3158 16.4331 11.4331C16.3158 11.5503 16.25 11.7092 16.25 11.875V13.125C16.25 13.2908 16.3158 13.4497 16.4331 13.5669C16.5503 13.6842 16.7092 13.75 16.875 13.75H18.125C18.2908 13.75 18.4497 13.6842 18.5669 13.5669C18.6842 13.4497 18.75 13.2908 18.75 13.125V11.875C18.75 11.7092 18.6842 11.5503 18.5669 11.4331C18.4497 11.3158 18.2908 11.25 18.125 11.25H16.875Z" fill="#101828"/>
</svg>
